<svg width="18" height="18" viewBox="0 0 18 18" fill="none" xmlns="http://www.w3.org/2000/svg">
<path d="M8.71875 0C3.90234 0 0 3.90234 0 8.71875C0 13.5352 3.90234 17.4375 8.71875 17.4375C13.5352 17.4375 17.4375 13.5352 17.4375 8.71875C17.4375 3.90234 13.5352 0 8.71875 0ZM11.9531 11.0039L11.25 11.8828C11.1445 12.0234 11.0039 12.1289 10.793 12.1289C10.6875 12.1289 10.5469 12.0586 10.4766 11.9883L8.12109 10.2305C7.76953 9.98438 7.59375 9.59766 7.59375 9.14062V3.65625C7.59375 3.375 7.83984 3.09375 8.15625 3.09375H9.28125C9.5625 3.09375 9.84375 3.375 9.84375 3.65625V8.71875L11.8828 10.2305C11.9883 10.3359 12.0938 10.4766 12.0938 10.6523C12.0938 10.793 12.0234 10.9336 11.9531 11.0039Z" fill="white"/>
</svg>
