<svg width="24" height="20" viewBox="0 0 24 20" fill="none" xmlns="http://www.w3.org/2000/svg">
<path d="M21.5156 4.82812C21.5156 5.0625 21.5156 5.25 21.5156 5.48438C21.5156 12 16.5938 19.4531 7.54688 19.4531C4.73438 19.4531 2.15625 18.6562 0 17.25C0.375 17.2969 0.75 17.3438 1.17188 17.3438C3.46875 17.3438 5.57812 16.5469 7.26562 15.2344C5.10938 15.1875 3.28125 13.7812 2.67188 11.8125C3 11.8594 3.28125 11.9062 3.60938 11.9062C4.03125 11.9062 4.5 11.8125 4.875 11.7188C2.625 11.25 0.9375 9.28125 0.9375 6.89062V6.84375C1.59375 7.21875 2.39062 7.40625 3.1875 7.45312C1.82812 6.5625 0.984375 5.0625 0.984375 3.375C0.984375 2.4375 1.21875 1.59375 1.64062 0.890625C4.07812 3.84375 7.73438 5.8125 11.8125 6.04688C11.7188 5.67188 11.6719 5.29688 11.6719 4.92188C11.6719 2.20312 13.875 0 16.5938 0C18 0 19.2656 0.5625 20.2031 1.54688C21.2812 1.3125 22.3594 0.890625 23.2969 0.328125C22.9219 1.5 22.1719 2.4375 21.1406 3.04688C22.125 2.95312 23.1094 2.67188 23.9531 2.29688C23.2969 3.28125 22.4531 4.125 21.5156 4.82812Z" fill="#F5F5F5"/>
</svg>
