<svg width="27" height="33" viewBox="0 0 27 33" fill="none" xmlns="http://www.w3.org/2000/svg">
<path d="M22.196 17.3705C22.2285 14.849 23.5826 12.4631 25.7308 11.1424C24.3756 9.20697 22.1057 7.97982 19.7441 7.90593C17.2252 7.64154 14.7833 9.41317 13.4997 9.41317C12.1913 9.41317 10.2151 7.93218 8.08697 7.97596C5.31309 8.06558 2.72714 9.64266 1.37759 12.0678C-1.52341 17.0904 0.640473 24.472 3.41939 28.5319C4.80974 30.5199 6.43466 32.7406 8.56083 32.6618C10.6414 32.5755 11.4185 31.3351 13.9299 31.3351C16.4181 31.3351 17.1471 32.6618 19.3164 32.6118C21.549 32.5755 22.9556 30.6149 24.2972 28.6081C25.2962 27.1915 26.0649 25.6259 26.5748 23.9693C23.9511 22.8596 22.199 20.2192 22.196 17.3705Z" fill="#F17228"/>
<path d="M18.0985 5.23593C19.3158 3.77462 19.9155 1.89635 19.7703 0C17.9105 0.195331 16.1926 1.08417 14.9589 2.48941C13.7525 3.86241 13.1246 5.70763 13.2433 7.5315C15.1037 7.55066 16.9327 6.68591 18.0985 5.23593Z" fill="#F17228"/>
</svg>
