<svg width="24" height="18" viewBox="0 0 24 18" fill="none" xmlns="http://www.w3.org/2000/svg">
<path d="M23.5312 5.95312C23.7188 5.8125 24 5.95312 24 6.1875V15.75C24 17.0156 22.9688 18 21.75 18H2.25C0.984375 18 0 17.0156 0 15.75V6.1875C0 5.95312 0.234375 5.8125 0.421875 5.95312C1.5 6.79688 2.85938 7.82812 7.64062 11.2969C8.625 12 10.3125 13.5469 12 13.5469C13.6406 13.5469 15.375 12 16.3125 11.2969C21.0938 7.82812 22.4531 6.79688 23.5312 5.95312ZM12 12C10.875 12.0469 9.32812 10.6406 8.53125 10.0781C2.29688 5.57812 1.82812 5.15625 0.421875 4.03125C0.140625 3.84375 0 3.51562 0 3.14062V2.25C0 1.03125 0.984375 0 2.25 0H21.75C22.9688 0 24 1.03125 24 2.25V3.14062C24 3.51562 23.8125 3.84375 23.5312 4.03125C22.125 5.15625 21.6562 5.57812 15.4219 10.0781C14.625 10.6406 13.0781 12.0469 12 12Z" fill="#ADADAD"/>
</svg>
