<svg width="312" height="37" viewBox="0 0 312 37" fill="none" xmlns="http://www.w3.org/2000/svg">
<mask id="mask0_401_1244" style="mask-type:alpha" maskUnits="userSpaceOnUse" x="0" y="3" width="28" height="31">
<path d="M8.89428 29.748C8.89428 31.7493 7.27197 33.3716 5.27075 33.3716C3.26953 33.3716 1.64722 31.7493 1.64722 29.748C1.64722 27.7468 3.26953 26.1245 5.27075 26.1245C7.27197 26.1245 8.89428 27.7468 8.89428 29.748Z" fill="#C4C4C4"/>
<path d="M26.3533 29.748C26.3533 31.7493 24.731 33.3716 22.7297 33.3716C20.7285 33.3716 19.1062 31.7493 19.1062 29.748C19.1062 27.7468 20.7285 26.1245 22.7297 26.1245C24.731 26.1245 26.3533 27.7468 26.3533 29.748Z" fill="#C4C4C4"/>
<path d="M5.27051 26.1245C7.04771 26.1245 8.52647 27.4039 8.83527 29.092C8.90075 29.4499 8.59951 29.7476 8.23562 29.7476H7.90625C5.98329 29.7476 4.22175 29.0599 2.85144 27.9184C2.59278 27.7029 2.56408 27.3162 2.8112 27.0876C3.45718 26.4899 4.32106 26.1245 5.27051 26.1245ZM28 21.8423C28 23.1671 27.673 24.4151 27.0967 25.5117C26.8965 25.8925 26.3825 25.9263 26.0486 25.6549C25.1425 24.9188 23.9878 24.4771 22.7295 24.4771C20.0415 24.4771 17.8235 26.4897 17.4996 29.0901C17.4547 29.4512 17.1641 29.7476 16.8002 29.7476H11.1998C10.8359 29.7476 10.5453 29.4512 10.5004 29.0901C10.1766 26.4897 7.95856 24.4771 5.27051 24.4771C4.01203 24.4771 2.85678 24.9186 1.95058 25.6548C1.61656 25.9261 1.10248 25.8924 0.902356 25.5114C0.326377 24.4149 3.39183e-05 23.1668 0 21.8423V20.1945C0 19.8306 0.294965 19.5356 0.658824 19.5356H27.3412C27.705 19.5356 28 19.8306 28 20.1945V21.8423ZM22.7295 26.1245C23.6787 26.1245 24.5419 26.49 25.1877 27.0875C25.4348 27.3161 25.4062 27.7029 25.1474 27.9184C23.7773 29.0597 22.0164 29.7476 20.0938 29.7476H19.7654C19.4015 29.7476 19.1002 29.4499 19.1657 29.092C19.4743 27.404 20.9523 26.1245 22.7295 26.1245ZM28 17.2303C28 17.5942 27.705 17.8892 27.3412 17.8892H0.658823C0.294965 17.8892 0 17.5942 0 17.2303V13.2775C0 12.9136 0.294965 12.6187 0.658824 12.6187H27.3412C27.705 12.6187 28 12.9136 28 13.2775V17.2303ZM20.0938 3.39502C24.1164 3.39502 27.4358 6.3997 27.9335 10.287C27.9811 10.6584 27.6792 10.9712 27.3048 10.9712H0.695236C0.320768 10.9712 0.0189166 10.6584 0.0664747 10.287C0.564197 6.3997 3.88363 3.39502 7.90625 3.39502H20.0938Z" fill="#C4C4C4"/>
</mask>
<g mask="url(#mask0_401_1244)">
<rect x="-1.64722" y="1.08936" width="33.6" height="10.8706" fill="url(#paint0_linear_401_1244)"/>
<rect x="-1.64722" y="18.8774" width="33.6" height="16.4706" fill="#FFA833"/>
<rect x="-1.64722" y="11.96" width="33.6" height="7.24706" rx="3.62353" fill="#F17228"/>
<rect x="-23.0586" y="26.1245" width="31.9529" height="7.24706" fill="#F58D00"/>
<rect x="19.1062" y="26.1245" width="31.9529" height="7.24706" fill="#F58D00"/>
<ellipse cx="8.11249" cy="6.20646" rx="1" ry="0.5" transform="rotate(-20.8548 8.11249 6.20646)" fill="white"/>
<ellipse cx="14" cy="5.8833" rx="1" ry="0.5" fill="white"/>
<ellipse cx="19.1176" cy="6.29555" rx="1" ry="0.5" transform="rotate(28.1155 19.1176 6.29555)" fill="white"/>
</g>
<path d="M42.2999 30V18.147H40.2466V14.756L42.2999 14.6005V13.7605C42.2999 12.9516 42.3932 12.1842 42.5799 11.4583C42.7873 10.7324 43.1192 10.0998 43.5754 9.5606C44.0317 9.02136 44.6228 8.59619 45.3487 8.28508C46.0746 7.97398 46.9561 7.81843 47.9931 7.81843C48.636 7.81843 49.2168 7.88065 49.7353 8.00509C50.2745 8.12953 50.7204 8.25397 51.073 8.37841L50.233 11.7383C49.6523 11.5309 49.1234 11.4272 48.6464 11.4272C48.0864 11.4272 47.6509 11.6035 47.3398 11.9561C47.0287 12.2879 46.8731 12.8479 46.8731 13.636V14.5693H49.6419V18.147H46.8731V30H42.2999ZM57.6701 30.3733C56.6953 30.3733 55.7516 30.197 54.839 29.8444C53.9265 29.4711 53.1176 28.9423 52.4124 28.2578C51.728 27.5734 51.1784 26.7334 50.7636 25.7379C50.3488 24.7216 50.1414 23.5706 50.1414 22.2847C50.1414 20.9988 50.3488 19.8581 50.7636 18.8625C51.1784 17.8463 51.728 16.9959 52.4124 16.3115C53.1176 15.6271 53.9265 15.1086 54.839 14.756C55.7516 14.3827 56.6953 14.196 57.6701 14.196C58.6448 14.196 59.5781 14.3827 60.47 14.756C61.3825 15.1086 62.181 15.6271 62.8655 16.3115C63.5706 16.9959 64.1306 17.8463 64.5454 18.8625C64.9602 19.8581 65.1676 20.9988 65.1676 22.2847C65.1676 23.5706 64.9602 24.7216 64.5454 25.7379C64.1306 26.7334 63.5706 27.5734 62.8655 28.2578C62.181 28.9423 61.3825 29.4711 60.47 29.8444C59.5781 30.197 58.6448 30.3733 57.6701 30.3733ZM57.6701 26.6712C58.6034 26.6712 59.3085 26.2771 59.7855 25.489C60.2626 24.7009 60.5011 23.6328 60.5011 22.2847C60.5011 20.9366 60.2626 19.8684 59.7855 19.0803C59.3085 18.2922 58.6034 17.8981 57.6701 17.8981C56.716 17.8981 56.0005 18.2922 55.5235 19.0803C55.0672 19.8684 54.839 20.9366 54.839 22.2847C54.839 23.6328 55.0672 24.7009 55.5235 25.489C56.0005 26.2771 56.716 26.6712 57.6701 26.6712ZM74.1487 30.3733C73.174 30.3733 72.2303 30.197 71.3177 29.8444C70.4051 29.4711 69.5963 28.9423 68.8911 28.2578C68.2067 27.5734 67.6571 26.7334 67.2423 25.7379C66.8275 24.7216 66.6201 23.5706 66.6201 22.2847C66.6201 20.9988 66.8275 19.8581 67.2423 18.8625C67.6571 17.8463 68.2067 16.9959 68.8911 16.3115C69.5963 15.6271 70.4051 15.1086 71.3177 14.756C72.2303 14.3827 73.174 14.196 74.1487 14.196C75.1235 14.196 76.0568 14.3827 76.9487 14.756C77.8612 15.1086 78.6597 15.6271 79.3441 16.3115C80.0493 16.9959 80.6093 17.8463 81.0241 18.8625C81.4389 19.8581 81.6463 20.9988 81.6463 22.2847C81.6463 23.5706 81.4389 24.7216 81.0241 25.7379C80.6093 26.7334 80.0493 27.5734 79.3441 28.2578C78.6597 28.9423 77.8612 29.4711 76.9487 29.8444C76.0568 30.197 75.1235 30.3733 74.1487 30.3733ZM74.1487 26.6712C75.082 26.6712 75.7872 26.2771 76.2642 25.489C76.7413 24.7009 76.9798 23.6328 76.9798 22.2847C76.9798 20.9366 76.7413 19.8684 76.2642 19.0803C75.7872 18.2922 75.082 17.8981 74.1487 17.8981C73.1947 17.8981 72.4792 18.2922 72.0021 19.0803C71.5459 19.8684 71.3177 20.9366 71.3177 22.2847C71.3177 23.6328 71.5459 24.7009 72.0021 25.489C72.4792 26.2771 73.1947 26.6712 74.1487 26.6712ZM89.5075 30.3733C88.5534 30.3733 87.6823 30.1867 86.8942 29.8133C86.1268 29.44 85.4631 28.9111 84.9031 28.2267C84.3639 27.5216 83.9387 26.6712 83.6276 25.6757C83.3373 24.6802 83.1921 23.5498 83.1921 22.2847C83.1921 21.0195 83.3684 19.8892 83.721 18.8937C84.0943 17.8981 84.5713 17.0582 85.152 16.3737C85.7535 15.6686 86.4379 15.1293 87.2053 14.756C87.9934 14.3827 88.7919 14.196 89.6008 14.196C90.4719 14.196 91.1874 14.3412 91.7474 14.6316C92.3074 14.9219 92.857 15.316 93.3962 15.8138L93.2096 13.4494V8.19175H97.7828V30H94.0495L93.7384 28.4756H93.614C93.0748 29.0148 92.4422 29.4711 91.7163 29.8444C90.9904 30.197 90.2541 30.3733 89.5075 30.3733ZM90.6896 26.6401C91.1874 26.6401 91.6333 26.5364 92.0274 26.329C92.4422 26.1216 92.8362 25.7586 93.2096 25.2401V18.9248C92.7948 18.5514 92.3696 18.2922 91.934 18.147C91.4985 18.0018 91.0733 17.9292 90.6585 17.9292C89.9326 17.9292 89.2897 18.2818 88.7297 18.987C88.1697 19.6714 87.8897 20.7499 87.8897 22.2225C87.8897 23.7572 88.1282 24.8772 88.6053 25.5824C89.103 26.2875 89.7978 26.6401 90.6896 26.6401Z" fill="#F17228"/>
<path d="M104.88 28H110.448L111.662 22.058C111.942 20.6269 112.128 19.258 112.377 17.4848H112.502C112.75 19.258 112.999 20.6269 113.279 22.058L114.524 28H120.248L123.888 12.5382H119.439L118.07 19.5069C117.79 21.0002 117.666 22.4935 117.386 24.1734H117.261C116.981 22.4935 116.701 21.0002 116.359 19.5069L114.71 12.5382H110.448L108.862 19.5069C108.519 20.9691 108.271 22.4935 107.991 24.1734H107.866C107.648 22.4935 107.462 21.0002 107.213 19.5069L105.813 12.5382H101.053L104.88 28ZM129.595 28.3733C131.338 28.3733 132.738 27.5956 134.013 26.4445H134.138L134.48 28H138.4V19.2269C138.4 14.3737 136.16 12.1649 132.178 12.1649C129.751 12.1649 127.542 12.9427 125.52 14.1871L127.2 17.2981C128.755 16.427 130 15.9915 131.244 15.9915C132.831 15.9915 133.484 16.7381 133.609 18.0136C127.511 18.6358 124.991 20.4091 124.991 23.6757C124.991 26.2578 126.764 28.3733 129.595 28.3733ZM131.244 24.6401C130.187 24.6401 129.595 24.2046 129.595 23.3024C129.595 22.2135 130.529 21.3735 133.609 20.9691V23.4268C132.862 24.1734 132.209 24.6401 131.244 24.6401ZM149.059 28.3054C147.905 28.3054 146.819 28.1358 145.801 27.7964C144.783 27.44 143.892 26.914 143.128 26.2182C142.382 25.5055 141.788 24.6231 141.347 23.571C140.922 22.502 140.71 21.2632 140.71 19.8548C140.71 18.4633 140.931 17.233 141.372 16.164C141.813 15.078 142.407 14.1701 143.154 13.4404C143.917 12.6938 144.8 12.1253 145.801 11.735C146.802 11.3447 147.854 11.1496 148.957 11.1496C150.179 11.1496 151.231 11.3702 152.114 11.8114C153.013 12.2356 153.76 12.7447 154.354 13.3386L152.063 16.1385C151.655 15.7822 151.223 15.4937 150.765 15.2731C150.323 15.0355 149.772 14.9167 149.11 14.9167C148.55 14.9167 148.032 15.027 147.557 15.2476C147.082 15.4682 146.666 15.7822 146.31 16.1894C145.954 16.5967 145.674 17.0973 145.47 17.6912C145.283 18.2851 145.19 18.9554 145.19 19.7021C145.19 21.2632 145.538 22.4596 146.234 23.291C146.929 24.1225 148.024 24.5383 149.517 24.5383C149.755 24.5383 149.984 24.5128 150.205 24.4619C150.442 24.411 150.637 24.3347 150.79 24.2328V21.942H148.346V18.3785H154.659V26.2691C154.065 26.8291 153.276 27.3127 152.292 27.72C151.308 28.1103 150.23 28.3054 149.059 28.3054ZM164.185 28.3733C168.136 28.3733 171.776 25.3867 171.776 20.2536C171.776 15.1204 168.136 12.1649 164.185 12.1649C160.265 12.1649 156.626 15.1204 156.626 20.2536C156.626 25.3867 160.265 28.3733 164.185 28.3733ZM164.185 24.4845C162.381 24.4845 161.541 22.8357 161.541 20.2536C161.541 17.7025 162.381 16.0226 164.185 16.0226C165.99 16.0226 166.83 17.7025 166.83 20.2536C166.83 22.8357 165.99 24.4845 164.185 24.4845ZM174.036 28H178.827V17.6403C179.791 16.7692 180.445 16.2403 181.534 16.2403C182.778 16.2403 183.338 16.8937 183.338 19.0403V28H188.16V18.4181C188.16 14.5604 186.729 12.1649 183.369 12.1649C181.254 12.1649 179.698 13.2227 178.423 14.4671H178.298L177.956 12.5382H174.036V28Z" fill="#FFB30E"/>
<defs>
<linearGradient id="paint0_linear_401_1244" x1="14.9999" y1="2.8833" x2="14.9999" y2="20.3833" gradientUnits="userSpaceOnUse">
<stop stop-color="#FFD16D"/>
<stop offset="1" stop-color="#FF7A00"/>
</linearGradient>
</defs>
</svg>
