<svg width="14" height="19" viewBox="0 0 14 19" fill="none" xmlns="http://www.w3.org/2000/svg">
<path d="M6.04688 17.6484C0.914062 10.2656 0 9.49219 0 6.75C0 3.02344 2.98828 0 6.75 0C10.4766 0 13.5 3.02344 13.5 6.75C13.5 9.49219 12.5508 10.2656 7.41797 17.6484C7.10156 18.1406 6.36328 18.1406 6.04688 17.6484ZM6.75 9.5625C8.29688 9.5625 9.5625 8.33203 9.5625 6.75C9.5625 5.20312 8.29688 3.9375 6.75 3.9375C5.16797 3.9375 3.9375 5.20312 3.9375 6.75C3.9375 8.33203 5.16797 9.5625 6.75 9.5625Z" fill="#FFB30E"/>
</svg>
