<svg width="153" height="192" viewBox="0 0 153 192" fill="none" xmlns="http://www.w3.org/2000/svg">
<g filter="url(#filter0_dd_504_196)">
<path d="M43.2812 21H108.906C110.168 21 111.187 22.0198 111.188 23.2812V128.718C111.187 129.64 110.63 130.474 109.78 130.825L109.775 130.827C108.954 131.173 107.959 130.995 107.294 130.33C104.56 127.597 100.128 127.597 97.3945 130.33C96.5034 131.221 95.0601 131.221 94.1689 130.33C91.4355 127.597 87.0031 127.597 84.2695 130.33C83.3784 131.221 81.9351 131.221 81.0439 130.33C78.3105 127.597 73.8781 127.597 71.1445 130.33C70.2534 131.221 68.8101 131.221 67.9189 130.33C65.1855 127.597 60.7531 127.597 58.0195 130.33C57.1284 131.221 55.6851 131.221 54.7939 130.33C52.0605 127.597 47.6282 127.597 44.8945 130.33C44.2379 130.987 43.2526 131.178 42.4111 130.826L42.4072 130.824C41.5577 130.473 41.0001 129.64 41 128.718V23.2812C41 22.0199 42.0199 21 43.2812 21Z" fill="url(#paint0_linear_504_196)" stroke="url(#paint1_linear_504_196)" stroke-width="2"/>
<path d="M76.0941 55.303C74.2868 55.303 72.8129 53.8321 72.8129 52.0217C72.8129 50.2114 74.2868 48.7405 76.0941 48.7405C77.9014 48.7405 79.3754 50.2114 79.3754 52.0217C79.3754 53.8354 80.843 55.303 82.6566 55.303C84.4703 55.303 85.9379 53.8354 85.9379 52.0217C85.9379 47.7495 83.1869 44.1415 79.3754 42.7824V38.8967C79.3754 37.0831 77.9078 35.6155 76.0941 35.6155C74.2805 35.6155 72.8129 37.0831 72.8129 38.8967V42.7824C69.0014 44.1415 66.2504 47.7495 66.2504 52.0217C66.2504 57.4498 70.6661 61.8655 76.0941 61.8655C77.9014 61.8655 79.3754 63.3364 79.3754 65.1467C79.3754 66.9571 77.9014 68.428 76.0941 68.428C74.2868 68.428 72.8129 66.9571 72.8129 65.1467C72.8129 63.3331 71.3453 61.8655 69.5316 61.8655C67.718 61.8655 66.2504 63.3331 66.2504 65.1467C66.2504 69.4189 69.0014 73.027 72.8129 74.3861V78.2717C72.8129 80.0854 74.2805 81.553 76.0941 81.553C77.9078 81.553 79.3754 80.0854 79.3754 78.2717V74.3861C83.1869 73.0272 85.9379 69.4189 85.9379 65.1467C85.9379 59.7187 81.5224 55.303 76.0941 55.303ZM76.0941 88.1155H56.4066C54.593 88.1155 53.1254 89.5831 53.1254 91.3967C53.1254 93.2104 54.593 94.678 56.4066 94.678H76.0941C77.9078 94.678 79.3754 93.2104 79.3754 91.3967C79.3754 89.5831 77.9078 88.1155 76.0941 88.1155ZM76.0941 101.24H56.4066C54.593 101.24 53.1254 102.708 53.1254 104.522C53.1254 106.335 54.593 107.803 56.4066 107.803H76.0941C77.9078 107.803 79.3754 106.335 79.3754 104.522C79.3754 102.708 77.9078 101.24 76.0941 101.24ZM89.2191 94.678H95.7816C97.5953 94.678 99.0629 93.2104 99.0629 91.3967C99.0629 89.5831 97.5953 88.1155 95.7816 88.1155H89.2191C87.4055 88.1155 85.9379 89.5831 85.9379 91.3967C85.9379 93.2104 87.4055 94.678 89.2191 94.678ZM95.7816 101.24H89.2191C87.4055 101.24 85.9379 102.708 85.9379 104.522C85.9379 106.335 87.4055 107.803 89.2191 107.803H95.7816C97.5953 107.803 99.0629 106.335 99.0629 104.522C99.0629 102.708 97.5953 101.24 95.7816 101.24Z" fill="white"/>
</g>
<defs>
<filter id="filter0_dd_504_196" x="0" y="0" width="152.188" height="192" filterUnits="userSpaceOnUse" color-interpolation-filters="sRGB">
<feFlood flood-opacity="0" result="BackgroundImageFix"/>
<feColorMatrix in="SourceAlpha" type="matrix" values="0 0 0 0 0 0 0 0 0 0 0 0 0 0 0 0 0 0 127 0" result="hardAlpha"/>
<feOffset dy="20"/>
<feGaussianBlur stdDeviation="20"/>
<feColorMatrix type="matrix" values="0 0 0 0 1 0 0 0 0 0.680498 0 0 0 0 0 0 0 0 0.29 0"/>
<feBlend mode="normal" in2="BackgroundImageFix" result="effect1_dropShadow_504_196"/>
<feColorMatrix in="SourceAlpha" type="matrix" values="0 0 0 0 0 0 0 0 0 0 0 0 0 0 0 0 0 0 127 0" result="hardAlpha"/>
<feOffset dy="5"/>
<feGaussianBlur stdDeviation="5"/>
<feColorMatrix type="matrix" values="0 0 0 0 1 0 0 0 0 0.680498 0 0 0 0 0 0 0 0 0.26 0"/>
<feBlend mode="normal" in2="effect1_dropShadow_504_196" result="effect2_dropShadow_504_196"/>
<feBlend mode="normal" in="SourceGraphic" in2="effect2_dropShadow_504_196" result="shape"/>
</filter>
<linearGradient id="paint0_linear_504_196" x1="76.0939" y1="-22.8026" x2="76.0939" y2="169.452" gradientUnits="userSpaceOnUse">
<stop offset="0.630208" stop-color="#FFAE00"/>
<stop offset="1" stop-color="#FFCD1E"/>
</linearGradient>
<linearGradient id="paint1_linear_504_196" x1="76.0939" y1="20" x2="76.0939" y2="132" gradientUnits="userSpaceOnUse">
<stop stop-color="#FF9F00"/>
<stop offset="1" stop-color="#FFB800"/>
</linearGradient>
</defs>
</svg>
