<svg width="35" height="39" viewBox="0 0 35 39" fill="none" xmlns="http://www.w3.org/2000/svg">
<path fill-rule="evenodd" clip-rule="evenodd" d="M25.2699 12.6974L19.3859 18.5815L1.08441 0.279989C1.77712 -0.142226 2.74472 -0.102092 3.8115 0.504114L25.2699 12.6974ZM26.1716 13.2098L20.0929 19.2885L26.1753 25.3709L33.063 21.4576C35.1585 20.2651 35.1585 18.3166 33.063 17.1256L26.1716 13.2098ZM25.2727 25.8823L19.3869 19.9965L1.08456 38.3017C1.77726 38.7235 2.7448 38.6825 3.8115 38.0776L25.2727 25.8823ZM0.394207 37.578L18.6798 19.2895L0.393681 1.00333C0.142054 1.44162 0 2.01414 0 2.7031V35.8771C0 36.5677 0.142252 37.1399 0.394207 37.578Z" fill="#F17228"/>
</svg>
