<svg width="19" height="19" viewBox="0 0 19 19" fill="none" xmlns="http://www.w3.org/2000/svg">
<path d="M0 8.89453V1.6875C0 0.773438 0.738281 0 1.6875 0H8.85938C9.31641 0 9.73828 0.210938 10.0547 0.527344L17.4727 7.94531C18.1406 8.61328 18.1406 9.70312 17.4727 10.3359L10.3008 17.5078C9.66797 18.1758 8.57812 18.1758 7.91016 17.5078L0.492188 10.0898C0.175781 9.77344 0 9.35156 0 8.89453ZM3.9375 2.25C2.98828 2.25 2.25 3.02344 2.25 3.9375C2.25 4.88672 2.98828 5.625 3.9375 5.625C4.85156 5.625 5.625 4.88672 5.625 3.9375C5.625 3.02344 4.85156 2.25 3.9375 2.25Z" fill="white"/>
</svg>
